# xmcd
#
# Track frame offsets: 
#        150
#        19137
#        36596
#        57508
#        75300
#        93388
#        108741
#        128683
#        147078
#        165108
#        180277
#
# Disc length: 2563 seconds
#
# Revision: 0
# Processed by: cddbd v1.5.2PL0 Copyright (c) Steve Scherf et al.
# Submitted via: ExactAudioCopyFreeDBPlugin 1.0
#
DISCID=840a010b
DTITLE=Blues Makers - Mes liekame cia
DYEAR=1997
DGENRE=Blues
TTITLE0=Svajoniu krastai
TTITLE1=Gatve
TTITLE2=Iliuziju laivas
TTITLE3=Geda
TTITLE4=Nusibodo
TTITLE5=Mes liekame cia
TTITLE6=Tu lauki?
TTITLE7=Broli, neverk
TTITLE8=Dviese nakty
TTITLE9=Nauja diena
TTITLE10=Kai vakre...
EXTD=
EXTT0=
EXTT1=
EXTT2=
EXTT3=
EXTT4=
EXTT5=
EXTT6=
EXTT7=
EXTT8=
EXTT9=
EXTT10=
PLAYORDER=
